<?xml version="1.0" encoding="UTF-8"?><svg xmlns="http://www.w3.org/2000/svg" viewBox="0 0 140.08 139.1"><defs><style>.cls-1{fill:#fff;stroke-width:0px;}</style></defs><g id="Circle"><path class="cls-1" d="m70.1,27.16c-23.52,0-42.66,19.02-42.66,42.4s19.14,42.4,42.66,42.4,42.66-19.02,42.66-42.4-19.14-42.4-42.66-42.4Zm0,82.51c-22.26,0-40.36-18-40.36-40.12s18.11-40.12,40.36-40.12,40.36,18,40.36,40.12-18.11,40.12-40.36,40.12Z"/></g><g id="Center"><path class="cls-1" d="m59.06,79.48l-11.3,11.23c-.5.5-.5,1.31,0,1.81.25.25.58.38.91.38s.66-.13.91-.38l13.2-13.12c-.91,0-2.28,0-3.73.08Z"/><path class="cls-1" d="m94.29,46.28c-.5-.5-1.32-.5-1.82,0l-14.2,14.11c.6.41,1.34,1,1.9,1.73l9.78-9.72c.55,1.26,1.22,3.38.91,5.69,0,0,3.78-2.53,1.39-7.97l2.05-2.03c.5-.5.5-1.31,0-1.81Z"/><path class="cls-1" d="m53.35,46.51l2.38,2.37-5.35,5.31-2.38-2.37-.81.81,9.16,9.11.62-.99h0s.73-.73.73-.73l4.61-4.59,2.08,2.07-3.08,3.06,1.18.43,2.71-2.69.37.36.83-.78-12.25-12.18-.81.81Zm8.16,8.11l-5.35,5.31-2.08-2.07,5.35-5.31,2.08,2.07Zm-2.89-2.87l-5.35,5.31-2.08-2.07,5.35-5.31,2.08,2.07Z"/><path class="cls-1" d="m94.12,87.04l.81-.81-5.03-5-1.07-.26-.02-.02-.5-.11-.55-.13.18.18-5.35,5.31-2.08-2.07,4.18-4.16-1.36-.26-3.64,3.61-.74-.74-.85.77,9.86,9.8.81-.81-2.49-2.47,5.35-5.31,2.49,2.47Zm-8.64,2.04l-2.08-2.07,5.35-5.31,2.08,2.07-5.35,5.31Z"/><path class="cls-1" d="m44.36,65.6s.19-3.26-.85-4.61h-.47s1.01,9.59-1.48,16.11c0,0,3.85,3.51,9.18.31,0,0-2.87-1.93-2.74-11.39l-3.63-.43Z"/><path class="cls-1" d="m54.68,68.83s-.57.38-1.99.38-2.21-1-2.68-1-.95,1.25-.95,2.23.63,2.16,1.2,2.1,1.39-1,2.62-1.03.88.22,1.51.19,2.05-.41,2.05-.41v-2.16s-1.1-.28-1.77-.28Z"/><path class="cls-1" d="m83.04,68.01v.56l4.86,2.57s4.29-.88,7.13,2.7l1.83-2.92-.28-.75s-1.89-.38-4.01-1.98l-9.53-.19Z"/><path class="cls-1" d="m65.07,63.1l.45.19s1.7-2.21,2.72-2.09.78.61.78.61c0,0,.02.26-.71.43-1.51.79-4.33,5.45-4.47,8.38,0,0,2.13-1.86,6.03-1.86l.07-8.21s.05-.4.64-.4.76.59.76.59v7.9s4.16.54,6.25,2.07c0,0,.61-4.51-4.7-8.23,0,0-.47-.38-.14-.85s.96-.16.96-.16c0,0,5.2,2.95,5.84,10.52l1.52,1.1s1.83-14.55-10.31-14.55c-5.77,0-7.07,3.27-7.07,3.27l1.47.63-.07.66Z"/><path class="cls-1" d="m58.05,60.96c.83-.51,1.96-.35,2.6.87s3.03,1.5,3.03,1.5c0,0-1.49,5.38-1.47,8.04l-4.59,1.88s.62-5.62-.14-7.55-.54-4.07.57-4.75Z"/><path class="cls-1" d="m55.89,72.79s.33,1.98,1.44,2.16,9.72-4.66,12.76-4.66,6.78,1.79,8.74,2.96,7.23,4.77,8.68,4.98c1.59.24,2.08.09,2.6-.61s.26-1.72-.57-2.45c-.58-.51-6.81-3.95-6.81-3.95l.05-1.46s6.96,3.39,8.19,4.89.83,3.14.5,3.62-.99,2-4.73.94-9.89-4.54-29.71-.71c0,0-4.49.47-3.6-3.84.5-2.39,2.46-1.9,2.46-1.9Z"/><path class="cls-1" d="m82.66,72.19c-.36-.13-.29,1.73-.1,2.15s4.57,3.09,5.46,3.28,1.28-.21,1.39-.5c.17-.45.1-.88-.38-1.3-.29-.26-5.92-3.46-6.36-3.62Z"/><path class="cls-1" d="m66.87,57.98s3.93-1.71,8,.3l-.71-13.28s-4.31-.94-7.29,0v12.98Z"/><path class="cls-1" d="m65.97,78.76s2.84-1.31,10.36-.65l1.14,12.18h-12.07l.57-11.53Z"/><rect class="cls-1" x="64.31" y="92.12" width="14.24" height="2.08" rx=".55" ry=".55"/><path class="cls-1" d="m82.99,99.97c0-2.31-1.89-4.19-4.21-4.19h-14.69c-2.33,0-4.21,1.87-4.21,4.19h0s23.11,0,23.11,0Z"/><rect class="cls-1" x="65.92" y="41.57" width="9.32" height="1.5" rx=".4" ry=".4"/><path class="cls-1" d="m65.92,38.73s-.43-1.84,1.37-1.78.54.87,2.93.89,2.87-1.42,4.35-1.39,1.32,1.6.66,2.57-1.51,1.47-2.93,1.13-2.18-.5-3.06-.03-3.22.05-3.33-1.38Z"/></g><g id="Sides"><path class="cls-1" d="m39.27,95.75c-6.22-7.26-9.65-16.52-9.65-26.08s3.43-18.81,9.65-26.08l.69-.8-16.46-16.37h0c-1.1-1.09-2.56-1.69-4.11-1.69s-3.01.6-4.11,1.69c-1.51,1.5-2.07,3.7-1.46,5.73h0c.51,1.87.76,3.93.76,6.15,0,6.61-2.82,12.94-7.74,17.38h-.01c-3.32,2.59-5.62,6.25-6.46,10.33-.24,1.16-.36,2.35-.36,3.54,0,.08,0,.16,0,.24,0,1.19.12,2.38.36,3.53.84,4.08,3.13,7.75,6.46,10.32h.01c4.92,4.45,7.75,10.78,7.75,17.39,0,2.21-.26,4.28-.76,6.14h0c-.61,2.04-.05,4.24,1.46,5.74,1.13,1.13,2.62,1.69,4.11,1.69s2.98-.56,4.11-1.69l16.46-16.37-.69-.8Zm-17.35-28.13c.83,0,1.54-.14,2.26-.46l-1.14,1.97c-.34.6-.91.86-1.71.86h-7.39v4.23c0,1.51.46,2.51,1.37,3h-6.08c.97-.54,1.34-1.46,1.34-3v-10.99c0-1.54-.4-2.48-1.34-3h16.07c-.11.4-.2.71-.2.94,0,.43.46,1.28.83,2.71-1.63-.94-3.65-1.23-6.28-1.23h-5.71v4.97h7.99Z"/><path class="cls-1" d="m123.19,62.64h-3.4v12.13h3.71c5.08,0,7.42-1.71,7.42-6.17s-2.57-5.97-7.74-5.97Z"/><path class="cls-1" d="m140.07,69.31c0-1.19-.12-2.38-.36-3.53-.84-4.08-3.13-7.75-6.46-10.32h-.01c-4.92-4.45-7.75-10.78-7.75-17.39,0-2.21.26-4.28.76-6.14h0c.61-2.04.05-4.24-1.46-5.74-1.1-1.09-2.56-1.69-4.11-1.69s-3.01.6-4.11,1.69l-16.46,16.37.69.8c6.22,7.26,9.65,16.52,9.65,26.08s-3.43,18.81-9.65,26.08l-.69.8,16.46,16.37c1.1,1.09,2.56,1.69,4.11,1.69s3.01-.6,4.11-1.69c1.51-1.5,2.07-3.7,1.46-5.73h0c-.51-1.87-.76-3.93-.76-6.15,0-6.61,2.82-12.94,7.74-17.38h.01c3.32-2.59,5.61-6.25,6.46-10.33.24-1.16.36-2.35.36-3.54,0-.08,0-.16,0-.24Zm-15.94,7.9h-9.05c1.03-.57,1.34-1.51,1.34-3.05v-10.88c0-1.54-.31-2.48-1.34-3.05h8.94c3.11,0,5.48.37,7.25,1.66,2.03,1.46,3.2,3.85,3.2,6.62,0,5.48-3.74,8.71-10.33,8.71Z"/></g><g id="Top"><path class="cls-1" d="m51.06,18.43c-1.44.53-1.98,1.72-1.45,3.16.5,1.36,1.61,1.88,2.94,1.38,1.44-.53,1.96-1.73,1.44-3.12-.52-1.41-1.59-1.92-2.93-1.42Z"/><path class="cls-1" d="m94.54,20.88c-1.37-.69-2.61-.28-3.3,1.09-.65,1.3-.27,2.46.99,3.1,1.37.69,2.6.26,3.27-1.07.67-1.34.32-2.47-.96-3.11Z"/><path class="cls-1" d="m113.49,15.18c-1.5-1.49-3.69-2.05-5.76-1.46-1.88.51-3.96.76-6.19.76-6.65,0-13.02-2.8-17.49-7.7h-.01c-2.59-3.32-6.28-5.6-10.38-6.43-1.24-.25-2.53-.37-3.81-.36-1.2,0-2.39.12-3.55.36-4.11.83-7.79,3.11-10.38,6.42h-.01c-4.47,4.91-10.84,7.71-17.49,7.71-2.23,0-4.32-.26-6.18-.76-2.05-.6-4.26-.05-5.77,1.45-1.1,1.09-1.7,2.54-1.7,4.09s.6,2.99,1.7,4.09l16.47,16.36.81-.68c7.31-6.19,16.62-9.59,26.24-9.59s18.93,3.41,26.24,9.59l.8.68,16.47-16.36h0c2.27-2.25,2.27-5.92,0-8.17Zm-72.7,15.28c-.77.57-1.47.87-1.86,1.17-.09.06-.15.15-.2.25l-1.21-1.03c1.06-.23,2-.64,2.79-1.22.9-.67,1.11-1.36.8-1.77-.4-.54-1.1-.32-2.22.28-1.53.81-2.57.85-3.16.04-.58-.79-.31-2.07,1.26-3.23.78-.58,1.52-.9,2.02-1.27.06-.04.12-.11.18-.2l.53,1.29c-.77.13-1.51.47-2.26,1.02-.79.58-1,1.14-.74,1.5.22.29.75.31,1.5-.07.76-.39,1.4-.78,2.08-.91.78-.15,1.4.07,1.81.62.74.99.33,2.32-1.3,3.53Zm4.58-3.22c.27-.44.13-.77-.13-1.24l-2.09-3.79-.4.22c-.86.47-1.48.94-1.85,1.55-.13-.54-.14-.9-.23-1.05-.03-.06-.12-.14-.23-.27l5.66-3.12c.04.15.06.26.11.35.08.14.37.35.76.75-.71-.02-1.42.25-2.28.73l-.41.23,2.09,3.79c.27.5.64.76,1.02.75l-2,1.1Zm7.53-3.37c-2.12.79-3.85.06-4.56-1.85-.7-1.89.14-3.66,2.38-4.49,2.12-.79,3.85-.08,4.56,1.85.7,1.87-.14,3.66-2.38,4.49Zm8.78-2.55c.03-.08.04-.15.03-.19,0-.04-.05-.1-.12-.17l-4.26-4.39.91,4.26c.12.56.27.88.72,1.03l-2.13.42c.34-.29.39-.66.27-1.23l-.79-4.02c-.11-.57-.3-.89-.72-1.03l2.52-.5c-.02.07-.03.13-.02.16.01.05.05.1.12.17l4.07,4.3-.83-4.12c-.11-.58-.32-.91-.72-1.03l2.08-.41c-.4.35-.34.7-.25,1.18,0,.02,0,.04.01.06l.89,4.54c.04.22.1.39.26.55l-2.05.4Zm2.8-.39c.36-.25.45-.61.4-1.19l-.36-4.08c-.05-.59-.21-.93-.6-1.1l2.28-.2c-.36.24-.45.6-.4,1.19l.36,4.08c.05.58.2.92.6,1.1l-2.28.2Zm9.66-5.52s0,.04,0,.06l-.08,4.63c0,.23.01.4.14.59l-2.08-.04c.04-.07.07-.14.07-.18,0-.04-.03-.11-.08-.19l-3.24-5.18v4.35c0,.57.08.91.49,1.16l-2.17-.04c.39-.21.51-.56.52-1.14l.07-4.09c0-.58-.1-.94-.49-1.16l2.57.04c-.03.06-.06.12-.06.15,0,.05.03.11.08.19l3.07,5.06.05-4.2c0-.59-.12-.96-.49-1.16l2.12.04c-.47.26-.48.62-.49,1.1Zm4.67,5.23c1.41.25,2.11-.07,2.26-.91l.14-.83-1.65-.29c-.3-.05-.54-.05-.83.08l.33-.66c.17-.34.35-.38.78-.3l2.91.51c-.19.16-.23.32-.26.51l-.52,2.97c-.14-.08-.25-.13-.37-.15-.5-.09-1.54.23-2.96-.02-2.38-.42-3.49-1.89-3.14-3.85.36-2.06,2.02-3.16,4.55-2.72,1.08.19,1.81.54,2.27.62.15.03.3.03.45.02l-.62,1.27c-.67-.52-1.5-.88-2.27-1.01-1.65-.29-2.79.48-3.07,2.04-.25,1.44.45,2.45,1.98,2.72Zm8.78-2.58l-1.35,4.11c-.18.54-.12.99.14,1.26l-2.16-.71c.51-.1.65-.43.82-.94l1.35-4.11-.44-.14c-.93-.31-1.7-.44-2.39-.3.31-.46.56-.72.62-.88.02-.06.03-.18.04-.35l6.13,2.02c-.09.13-.15.22-.18.31-.05.15,0,.51-.03,1.06-.47-.53-1.15-.87-2.09-1.17l-.45-.15Zm4.22,7.87c-2.02-1.02-2.67-2.78-1.75-4.6.91-1.8,2.78-2.39,4.91-1.32,2.03,1.02,2.67,2.76,1.75,4.6-.9,1.79-2.78,2.39-4.91,1.32Zm12.51,1.53s-.03.04-.04.05l-2.71,3.76c-.13.18-.22.33-.22.57l-1.69-1.22c.08-.04.13-.08.16-.11.03-.04.04-.11.04-.21l.3-6.1-2.49,3.57c-.32.47-.46.8-.26,1.23l-1.76-1.27c.44.05.74-.17,1.08-.64l2.4-3.32c.34-.47.45-.83.26-1.23l2.08,1.5c-.06.03-.11.06-.13.09-.03.04-.04.11-.04.21l-.37,5.91,2.44-3.42c.35-.48.45-.86.26-1.23l1.72,1.24c-.53-.05-.75.23-1.03.62Z"/></g><g id="Bottom"><polygon class="cls-1" points="63.58 122.22 66.92 122.51 65.51 118.94 63.58 122.22"/><path class="cls-1" d="m113.61,115.75l-16.47-16.36-.81.68c-7.31,6.19-16.62,9.59-26.24,9.59s-18.93-3.41-26.24-9.59l-.81-.68-16.47,16.36h0c-1.1,1.09-1.7,2.54-1.7,4.09s.6,2.99,1.7,4.09c1.51,1.5,3.72,2.06,5.77,1.45h0c1.87-.51,3.95-.76,6.18-.76,6.65,0,13.01,2.8,17.49,7.7v.02c2.6,3.3,6.29,5.58,10.4,6.42,1.16.24,2.36.36,3.56.36.08,0,.16,0,.24,0,1.2,0,2.39-.12,3.55-.36,4.11-.84,7.79-3.11,10.38-6.42v-.02c4.48-4.89,10.85-7.7,17.5-7.7,2.22,0,4.3.25,6.17.76h0c2.05.61,4.26.05,5.77-1.45,2.27-2.25,2.27-5.92,0-8.17Zm-56.1,7.95c.49-.2.65-.51.79-1.03l1.21-4.35-3.65,4.48c-.06.08-.11.13-.13.2-.01.04,0,.12.01.21l-1.51-.42c.06-.08.1-.14.1-.16.02-.07,0-.15,0-.27l-.72-5.81-1.25,4.46c-.16.59-.13.98.19,1.31l-2.17-.6c.44-.11.67-.43.84-1.02l1.16-4.14c.17-.6.14-.99-.19-1.31l2.67.74c-.06.06-.1.12-.12.19-.02.05-.01.14,0,.26l.62,5.4,3.37-4.3c.06-.08.1-.15.11-.19.02-.07,0-.15-.01-.25l2.72.76c-.44.1-.67.42-.84,1.02l-1.16,4.15c-.15.53-.16.88.14,1.29l-2.18-.61Zm9.75,1.32c.17-.14.27-.29.29-.49.01-.17-.02-.34-.05-.45l-.21-.54-4.25-.37-.25.42c-.07.12-.13.28-.14.46-.02.23.05.42.2.57l-2.24-.19c.4-.34.66-.7.89-1.07l3-4.85c.07-.12.11-.21.11-.27,0-.03-.01-.11-.06-.22l2.27.2c-.05.09-.09.16-.1.22,0,.06.01.14.06.25l2.02,5.3c.18.46.39.86.69,1.21l-2.23-.19Zm2.87.04c.39-.24.52-.61.5-1.22l-.1-4.3c-.02-.62-.16-.99-.56-1.2l2.41-.06c-.39.22-.52.6-.5,1.22l.11,4.3c.01.61.15.98.56,1.2l-2.4.06Zm8.74-.7c.03-.08.05-.16.04-.2,0-.04-.05-.11-.12-.19l-4.2-4.87.7,4.53c.09.59.23.94.69,1.13l-2.26.31c.37-.28.45-.67.36-1.27l-.58-4.27c-.08-.61-.26-.96-.69-1.13l2.68-.37c-.02.07-.04.13-.04.17,0,.06.05.11.12.19l4,4.77-.62-4.38c-.08-.62-.28-.98-.69-1.13l2.21-.3c-.44.35-.4.72-.34,1.22v.07s.67,4.83.67,4.83c.03.24.08.41.24.59l-2.17.3Zm3.88-.66c.3-.32.34-.71.16-1.29l-1.28-4.16c-.18-.58-.44-.89-.86-.98l6.61-2.03c0,.17,0,.29.03.38.05.16.31.44.63.93-.72-.17-1.53-.04-2.52.26l-2.69.82.53,1.73,3.03-.93c.31-.1.58-.24.81-.43l-.21.88c-.06.26-.25.43-.55.52l-2.8.86.6,1.96,2.78-.85c1.13-.35,1.96-.87,2.35-1.41-.04.65-.14,1.07-.07,1.3.03.09.07.2.17.36l-6.72,2.06Z"/></g></svg>